<?xml version="1.0" encoding="UTF-8"?>
<svg width="44" height="44" viewBox="0 0 64 64" xmlns="http://www.w3.org/2000/svg">
  <path d="m32 4a28 28 0 0 1 0 56" fill="black"/>

  <path d="m49 36a2 2 0 0 1 0-4h11a27.8539 27.8539 0 0 0 -.2954-4h-17.7046a2 2 0 0 1 0-4h8a2 2 0 0 0 0-4h-16a2 2 0 0 1 0-4h5a4 4 0 0 1 0-8h7.4257a28 28 0 1 0 0 48h-5.4257a2 2 0 0 1 0-4h5a2 2 0 0 0 0-4h-12a2 2 0 0 1 0-4h15a4 4 0 0 0 0-8z" fill="black"/>

  <g fill="black">
    <path d="m19 48a1.0029 1.0029 0 0 1 -1 1h-8.24a22.3542 22.3542 0 0 1 -1.39-2h9.63a1.0029 1.0029 0 0 1 1 1z"/>
    <path d="m18 33h-4a1 1 0 0 1 0-2h4a1 1 0 0 1 0 2z"/>
    <path d="m11 32a1.0029 1.0029 0 0 1 -1 1h-5.97c-.02-.33-.03-.66-.03-1s.01-.67.03-1h5.97a1.0029 1.0029 0 0 1 1 1z"/>
    <path d="m19 16a1.0029 1.0029 0 0 1 -1 1h-9.63a22.3542 22.3542 0 0 1 1.39-2h8.24a1.0029 1.0029 0 0 1 1 1z"/>
  </g>
</svg>
